<svg width="19" height="19" viewBox="0 0 19 19" fill="none" xmlns="http://www.w3.org/2000/svg">
<path fill-rule="evenodd" clip-rule="evenodd" d="M6.41687 2.02097C6.55097 1.75276 6.8251 1.58334 7.12496 1.58334H11.875C12.1748 1.58334 12.4489 1.75276 12.583 2.02097L13.5517 3.95834H16.2291C17.3222 3.95834 18.2083 4.84445 18.2083 5.93751V15.4375C18.2083 16.5306 17.3222 17.4167 16.2291 17.4167H2.77079C1.67773 17.4167 0.791626 16.5306 0.791626 15.4375V5.93751C0.791626 4.84445 1.67773 3.95834 2.77079 3.95834H5.44818L6.41687 2.02097ZM7.2184 3.95834H11.7815L11.3857 3.16668H7.61424L7.2184 3.95834ZM2.77079 5.54168C2.55218 5.54168 2.37496 5.7189 2.37496 5.93751V15.4375C2.37496 15.6561 2.55218 15.8333 2.77079 15.8333H16.2291C16.4477 15.8333 16.625 15.6561 16.625 15.4375V5.93751C16.625 5.7189 16.4477 5.54168 16.2291 5.54168H2.77079ZM5.54163 10.6875C5.54163 8.50137 7.31382 6.72918 9.49996 6.72918C11.6861 6.72918 13.4583 8.50137 13.4583 10.6875C13.4583 12.8736 11.6861 14.6458 9.49996 14.6458C7.31382 14.6458 5.54163 12.8736 5.54163 10.6875ZM9.49996 8.31251C8.18828 8.31251 7.12496 9.37582 7.12496 10.6875C7.12496 11.9992 8.18828 13.0625 9.49996 13.0625C10.8116 13.0625 11.875 11.9992 11.875 10.6875C11.875 9.37582 10.8116 8.31251 9.49996 8.31251Z" fill="#20A090"/>
</svg>
