<svg width="19" height="19" viewBox="0 0 19 19" fill="none" xmlns="http://www.w3.org/2000/svg">
<path d="M6.33335 9.50002C6.77058 9.50002 7.12502 9.85446 7.12502 10.2917V11.0834H7.91669C8.35391 11.0834 8.70835 11.4378 8.70835 11.875C8.70835 12.3122 8.35391 12.6667 7.91669 12.6667H7.12502V13.4584C7.12502 13.8956 6.77058 14.25 6.33335 14.25C5.89613 14.25 5.54169 13.8956 5.54169 13.4584V12.6667H4.75002C4.3128 12.6667 3.95835 12.3122 3.95835 11.875C3.95835 11.4378 4.3128 11.0834 4.75002 11.0834H5.54169V10.2917C5.54169 9.85446 5.89613 9.50002 6.33335 9.50002Z" fill="#20A090"/>
<path fill-rule="evenodd" clip-rule="evenodd" d="M12.6667 9.50002C11.355 9.50002 10.2917 10.5633 10.2917 11.875C10.2917 13.1867 11.355 14.25 12.6667 14.25C13.9784 14.25 15.0417 13.1867 15.0417 11.875C15.0417 10.5633 13.9784 9.50002 12.6667 9.50002ZM11.875 11.875C11.875 11.4378 12.2295 11.0834 12.6667 11.0834C13.1039 11.0834 13.4584 11.4378 13.4584 11.875C13.4584 12.3122 13.1039 12.6667 12.6667 12.6667C12.2295 12.6667 11.875 12.3122 11.875 11.875Z" fill="#20A090"/>
<path fill-rule="evenodd" clip-rule="evenodd" d="M12.6667 0.791687C13.1039 0.791687 13.4584 1.14613 13.4584 1.58335V3.84526C13.4584 4.28248 13.1039 4.63693 12.6667 4.63693H10.2917V6.33335H12.6667C15.7273 6.33335 18.2084 8.81444 18.2084 11.875C18.2084 14.9356 15.7273 17.4167 12.6667 17.4167H6.33335C3.27278 17.4167 0.791687 14.9356 0.791687 11.875C0.791687 8.81444 3.27278 6.33335 6.33335 6.33335H8.70835V3.84526C8.70835 3.40803 9.0628 3.05359 9.50002 3.05359H11.875V1.58335C11.875 1.14613 12.2295 0.791687 12.6667 0.791687ZM6.33335 7.91669C4.14723 7.91669 2.37502 9.68889 2.37502 11.875C2.37502 14.0611 4.14723 15.8334 6.33335 15.8334H12.6667C14.8528 15.8334 16.625 14.0611 16.625 11.875C16.625 9.68889 14.8528 7.91669 12.6667 7.91669H6.33335Z" fill="#20A090"/>
</svg>
