<svg width="19" height="19" viewBox="0 0 19 19" fill="none" xmlns="http://www.w3.org/2000/svg">
<path fill-rule="evenodd" clip-rule="evenodd" d="M5.29725 1.11771C5.44623 0.912877 5.68422 0.791687 5.9375 0.791687H12.2708C12.5241 0.791687 12.7621 0.912879 12.9111 1.11772C12.2315 1.61198 12.2645 1.58795 12.9111 1.11772L12.913 1.12035L12.9159 1.12444L12.9249 1.13698C12.9322 1.14724 12.942 1.16133 12.9543 1.17909C12.9788 1.2146 13.0128 1.26488 13.0543 1.32885C13.1374 1.4567 13.251 1.63988 13.3796 1.86977C13.6359 2.32795 13.9564 2.9802 14.2106 3.75622C14.4568 4.50739 14.6458 5.38971 14.6458 6.33335C14.6458 7.10963 14.4804 7.85455 14.1832 8.53142C13.4319 10.2431 11.8286 11.5366 9.89583 11.8179V16.625H13.0625C13.4997 16.625 13.8542 16.9795 13.8542 17.4167C13.8542 17.8539 13.4997 18.2084 13.0625 18.2084H5.14583C4.70861 18.2084 4.35417 17.8539 4.35417 17.4167C4.35417 16.9795 4.70861 16.625 5.14583 16.625H8.3125V11.8189C6.46383 11.5544 4.91052 10.3776 4.12171 8.7618C3.76331 8.02757 3.5625 7.20275 3.5625 6.33335C3.5625 5.27842 3.7988 4.29936 4.08793 3.49318C4.34001 2.79037 4.63768 2.20385 4.87244 1.79233C4.99018 1.58594 5.09308 1.42187 5.16803 1.30733C5.20553 1.25002 5.23612 1.20497 5.25818 1.1731C5.26921 1.15716 5.27811 1.1445 5.28469 1.13524L5.29279 1.12389L5.29549 1.12015L5.29649 1.11877L5.29725 1.11771ZM6.36654 2.37502C6.33013 2.43495 6.29021 2.50242 6.24772 2.57691C6.04681 2.92908 5.79229 3.43111 5.57832 4.02769M6.36654 2.37502H11.8418C11.8887 2.45216 11.9413 2.54178 11.9978 2.64275C12.218 3.03641 12.4913 3.59384 12.706 4.24921C12.8617 4.72443 12.9839 5.24272 13.0356 5.78148C12.785 5.85684 12.4611 5.93934 12.0979 5.99669C11.2309 6.13358 10.2667 6.10766 9.51148 5.65451C8.28757 4.92016 6.87671 4.94608 5.86351 5.10606C5.64538 5.1405 5.43976 5.18209 5.25099 5.22628C5.32902 4.80377 5.44473 4.40018 5.57832 4.02769M5.54454 8.06717C5.36567 7.70072 5.24163 7.3023 5.18346 6.88201L5.54454 8.06717ZM5.18346 6.88201C5.43256 6.80753 5.75238 6.72656 6.11045 6.67002C6.97745 6.53313 7.94159 6.55905 8.69686 7.0122C9.92076 7.74655 11.3316 7.72063 12.3448 7.56065C12.5396 7.52989 12.7245 7.49343 12.8962 7.45451C12.8507 7.60491 12.7962 7.75195 12.7334 7.89499C12.1186 9.29574 10.7182 10.2917 9.10417 10.2917C7.54126 10.2917 6.18838 9.38593 5.54454 8.06717" fill="#20A090"/>
</svg>
