<svg width="19" height="19" viewBox="0 0 19 19" fill="none" xmlns="http://www.w3.org/2000/svg">
<path fill-rule="evenodd" clip-rule="evenodd" d="M16.7193 0.96167C16.9097 1.11179 17.0208 1.34089 17.0208 1.58336V4.78336C17.0211 4.7946 17.0211 4.80581 17.0208 4.81699V13.6167C17.0208 14.8409 16.0284 15.8334 14.8041 15.8334H13.2604C12.058 15.8334 11.0833 14.8587 11.0833 13.6563C11.0833 12.4539 12.058 11.4792 13.2604 11.4792H15.4375V5.80049L7.12498 7.76856V15.2C7.12498 16.4243 6.13253 17.4167 4.90831 17.4167H3.7604C2.55803 17.4167 1.58331 16.442 1.58331 15.2396C1.58331 14.0372 2.55803 13.0625 3.7604 13.0625H5.54165V7.15857C5.54141 7.14734 5.54141 7.13615 5.54165 7.12498V3.95836C5.54165 3.5923 5.79261 3.27398 6.14856 3.18855L16.0444 0.813554C16.2802 0.756968 16.5289 0.81155 16.7193 0.96167ZM7.12498 6.14146L15.4375 4.17339V2.58751L7.12498 4.58251V6.14146ZM5.54165 14.6459H3.7604C3.43248 14.6459 3.16665 14.9117 3.16665 15.2396C3.16665 15.5675 3.43248 15.8334 3.7604 15.8334H4.90831C5.25808 15.8334 5.54165 15.5498 5.54165 15.2V14.6459ZM15.4375 13.0625H13.2604C12.9325 13.0625 12.6666 13.3284 12.6666 13.6563C12.6666 13.9842 12.9325 14.25 13.2604 14.25H14.8041C15.1539 14.25 15.4375 13.9665 15.4375 13.6167V13.0625Z" fill="#20A090"/>
</svg>
