<svg width="19" height="19" viewBox="0 0 19 19" fill="none" xmlns="http://www.w3.org/2000/svg">
<path fill-rule="evenodd" clip-rule="evenodd" d="M14.6459 2.37502C13.99 2.37502 13.4584 2.90668 13.4584 3.56252C13.4584 4.21836 13.99 4.75002 14.6459 4.75002C15.3017 4.75002 15.8334 4.21836 15.8334 3.56252C15.8334 2.90668 15.3017 2.37502 14.6459 2.37502ZM11.875 3.56252C11.875 2.03223 13.1156 0.791687 14.6459 0.791687C16.1761 0.791687 17.4167 2.03223 17.4167 3.56252C17.4167 5.09281 16.1761 6.33335 14.6459 6.33335C13.1156 6.33335 11.875 5.09281 11.875 3.56252ZM7.132 3.16672C7.44904 3.16951 7.73385 3.3612 7.85579 3.65387L11.0009 11.2022L11.9156 8.45801C12.0134 8.1647 12.273 7.95515 12.5803 7.92141C12.8876 7.88768 13.1865 8.03593 13.3455 8.30104L18.0955 16.2177C18.2423 16.4623 18.2461 16.7669 18.1056 17.0151C17.9651 17.2633 17.7019 17.4167 17.4167 17.4167H1.58336C1.31619 17.4167 1.06704 17.2819 0.920807 17.0583C0.774572 16.8347 0.750979 16.5525 0.858065 16.3077L6.39973 3.64104C6.52682 3.35056 6.81495 3.16392 7.132 3.16672ZM2.79383 15.8334H16.0185L12.8734 10.5916L11.8344 13.7087C11.73 14.0219 11.4422 14.2374 11.1123 14.2495C10.7823 14.2615 10.4796 14.0676 10.3526 13.7628L7.10726 5.97407L2.79383 15.8334Z" fill="white"/>
</svg>
