<svg width="19" height="19" viewBox="0 0 19 19" fill="none" xmlns="http://www.w3.org/2000/svg">
<path fill-rule="evenodd" clip-rule="evenodd" d="M0.791626 9.50002C0.791626 4.69054 4.69048 0.791687 9.49996 0.791687C14.3094 0.791687 18.2083 4.69054 18.2083 9.50002C18.2083 9.70998 18.1249 9.91135 17.9764 10.0598L10.0598 17.9765C9.75059 18.2856 9.24933 18.2856 8.94017 17.9765L1.0235 10.0598C0.875033 9.91135 0.791626 9.70998 0.791626 9.50002ZM2.58476 7.77678C2.60995 7.7619 2.63499 7.74735 2.6599 7.73312C3.12341 7.46825 3.61768 7.26896 4.10223 7.26896C4.58678 7.26896 5.08106 7.46825 5.54457 7.73312C5.87038 7.91929 6.22042 8.16106 6.59333 8.45291C7.49324 7.70311 8.46379 7.26896 9.49996 7.26896C10.5361 7.26896 11.5067 7.70311 12.4066 8.45291C12.7795 8.16106 13.1295 7.91929 13.4554 7.73312C13.9189 7.46825 14.4131 7.26896 14.8977 7.26896C15.3822 7.26896 15.8765 7.46825 16.34 7.73312C16.3649 7.74735 16.39 7.76191 16.4152 7.77679C15.6446 4.67433 12.8408 2.37502 9.49996 2.37502C6.15914 2.37502 3.35535 4.67433 2.58476 7.77678ZM16.2342 9.56283C15.9803 9.3725 15.754 9.22183 15.5545 9.10783C15.1783 8.8929 14.9729 8.85229 14.8977 8.85229C14.8225 8.85229 14.617 8.8929 14.2409 9.10783C13.9163 9.29331 13.5207 9.57584 13.0508 9.96832L11.4635 14.3336L16.2342 9.56283ZM9.49996 15.1001L11.4557 9.72197C10.7303 9.0989 10.0803 8.85229 9.49996 8.85229C8.91964 8.85229 8.26958 9.0989 7.54426 9.72197L9.49996 15.1001ZM5.94908 9.96832C5.47922 9.57584 5.08359 9.29331 4.75901 9.10783C4.38288 8.8929 4.17745 8.85229 4.10223 8.85229C4.02702 8.85229 3.82159 8.8929 3.44545 9.10783C3.24595 9.22183 3.01961 9.3725 2.76569 9.56283L7.53645 14.3336L5.94908 9.96832Z" fill="#20A090"/>
</svg>
