<svg width="19" height="19" viewBox="0 0 19 19" fill="none" xmlns="http://www.w3.org/2000/svg">
<path fill-rule="evenodd" clip-rule="evenodd" d="M0.791626 9.50002C0.791626 4.69054 4.69048 0.791687 9.49996 0.791687C14.3094 0.791687 18.2083 4.69054 18.2083 9.50002C18.2083 10.3668 17.7095 10.9302 17.1216 11.2708C16.5787 11.5853 15.8886 11.7579 15.2774 11.8902C15.0825 11.9324 14.8938 11.9709 14.7107 12.0083C14.2726 12.0977 13.8666 12.1806 13.484 12.2918C12.9352 12.4514 12.6206 12.623 12.4675 12.7958L11.875 12.2709L12.4675 12.7958C12.2412 13.0513 12.0961 13.4159 12.0015 13.9135C11.934 14.2685 11.9024 14.6175 11.8682 14.9961C11.8524 15.171 11.8361 15.3522 11.8153 15.5432C11.7571 16.079 11.6602 16.7362 11.3351 17.2602C11.1607 17.5414 10.9178 17.7909 10.587 17.9641C10.2606 18.135 9.89298 18.2084 9.49996 18.2084C4.69048 18.2084 0.791626 14.3095 0.791626 9.50002ZM9.49996 2.37502C5.56493 2.37502 2.37496 5.56499 2.37496 9.50002C2.37496 13.4351 5.56493 16.625 9.49996 16.625C9.69674 16.625 9.80035 16.5888 9.85273 16.5613C9.90068 16.5362 9.94418 16.4988 9.98966 16.4255C10.1044 16.2405 10.1819 15.9182 10.2412 15.3722C10.2555 15.241 10.2688 15.0947 10.2829 14.939C10.3202 14.5282 10.3634 14.0523 10.446 13.6177C10.5641 12.9969 10.7835 12.309 11.2824 11.7459C11.748 11.2203 12.4355 10.9478 13.0418 10.7715C13.4909 10.6409 13.9968 10.5376 14.4592 10.4432C14.6277 10.4089 14.7903 10.3757 14.9423 10.3427C15.5619 10.2086 16.0251 10.0762 16.3279 9.90078C16.5858 9.75136 16.625 9.63978 16.625 9.50002C16.625 5.56499 13.435 2.37502 9.49996 2.37502ZM9.10413 5.54169C9.10413 4.44861 9.99021 3.56252 11.0833 3.56252C12.1764 3.56252 13.0625 4.44861 13.0625 5.54169C13.0625 6.63477 12.1764 7.52085 11.0833 7.52085C9.99021 7.52085 9.10413 6.63477 9.10413 5.54169ZM11.0833 5.14585C10.8647 5.14585 10.6875 5.32306 10.6875 5.54169C10.6875 5.76032 10.8647 5.93752 11.0833 5.93752C11.3019 5.93752 11.4791 5.76032 11.4791 5.54169C11.4791 5.32306 11.3019 5.14585 11.0833 5.14585ZM4.35413 7.12502C4.35413 6.03194 5.24021 5.14585 6.33329 5.14585C7.42637 5.14585 8.31246 6.03194 8.31246 7.12502C8.31246 8.2181 7.42637 9.10419 6.33329 9.10419C5.24021 9.10419 4.35413 8.2181 4.35413 7.12502ZM6.33329 6.72919C6.11466 6.72919 5.93746 6.90639 5.93746 7.12502C5.93746 7.34365 6.11466 7.52085 6.33329 7.52085C6.55192 7.52085 6.72913 7.34365 6.72913 7.12502C6.72913 6.90639 6.55192 6.72919 6.33329 6.72919ZM4.74996 12.2709C4.74996 11.1778 5.63604 10.2917 6.72913 10.2917C7.82221 10.2917 8.70829 11.1778 8.70829 12.2709C8.70829 13.3639 7.82221 14.25 6.72913 14.25C5.63604 14.25 4.74996 13.3639 4.74996 12.2709ZM6.72913 11.875C6.5105 11.875 6.33329 12.0522 6.33329 12.2709C6.33329 12.4895 6.5105 12.6667 6.72913 12.6667C6.94776 12.6667 7.12496 12.4895 7.12496 12.2709C7.12496 12.0522 6.94776 11.875 6.72913 11.875Z" fill="#20A090"/>
</svg>
