<svg width="19" height="19" viewBox="0 0 19 19" fill="none" xmlns="http://www.w3.org/2000/svg">
<path d="M5.54168 12.2708C6.59224 12.2708 7.39664 12.464 8.62603 12.9855L9.07867 13.1834L9.57315 13.4098L10.3004 13.7497L10.7191 13.9383C10.7856 13.9676 10.8505 13.9958 10.9139 14.0229L11.278 14.1736C12.149 14.5202 12.744 14.6458 13.4584 14.6458C14.209 14.6458 15.0436 14.4455 15.8857 14.1087C16.186 13.9886 16.4651 13.8598 16.7144 13.7315L16.9271 13.6183L17.0094 13.5712C17.3843 13.3462 17.8706 13.4678 18.0955 13.8427C18.3205 14.2176 18.1989 14.7039 17.824 14.9289L17.6094 15.0512L17.3428 15.1903C17.1 15.3117 16.807 15.4455 16.4737 15.5788C15.4603 15.9842 14.4394 16.2292 13.4584 16.2292C12.4078 16.2292 11.6034 16.036 10.374 15.5145L9.92137 15.3167L9.42688 15.0902L8.69967 14.7503L8.28093 14.5617C8.21445 14.5324 8.14955 14.5043 8.08611 14.4771L7.72205 14.3264C6.85106 13.9798 6.256 13.8542 5.54168 13.8542C4.79101 13.8542 3.9564 14.0545 3.11435 14.3913C2.81404 14.5114 2.53497 14.6402 2.28559 14.7685L2.07291 14.8817L1.99066 14.9289C1.61574 15.1538 1.12945 15.0322 0.904503 14.6573C0.679552 14.2824 0.801124 13.7961 1.17604 13.5712L1.39065 13.4488L1.65725 13.3097C1.90002 13.1883 2.193 13.0545 2.52631 12.9212C3.53973 12.5158 4.56059 12.2708 5.54168 12.2708Z" fill="#20A090"/>
<path d="M5.54168 7.52084C6.59224 7.52084 7.39664 7.71403 8.62603 8.23547L9.07867 8.43336L9.57315 8.65982L10.3004 8.99973L10.7191 9.18831C10.7856 9.21757 10.8505 9.24576 10.9139 9.27292L11.278 9.42359C12.149 9.77023 12.744 9.89584 13.4584 9.89584C14.209 9.89584 15.0436 9.69554 15.8857 9.35872C16.186 9.23859 16.4651 9.10979 16.7144 8.98154L16.9271 8.86829L17.0094 8.82116C17.3843 8.59621 17.8706 8.71778 18.0955 9.0927C18.3205 9.46762 18.1989 9.95391 17.824 10.1789L17.6094 10.3012L17.3428 10.4403C17.1 10.5617 16.807 10.6955 16.4737 10.8288C15.4603 11.2342 14.4394 11.4792 13.4584 11.4792C12.4078 11.4792 11.6034 11.286 10.374 10.7645L9.92137 10.5667L9.42688 10.3402L8.69967 10.0003L8.28093 9.81171C8.21445 9.78245 8.14955 9.75426 8.08611 9.7271L7.72205 9.57643C6.85106 9.22979 6.256 9.10418 5.54168 9.10418C4.79101 9.10418 3.9564 9.30448 3.11435 9.6413C2.81404 9.76143 2.53497 9.89023 2.28559 10.0185L2.07291 10.1317L1.99066 10.1789C1.61574 10.4038 1.12945 10.2822 0.904503 9.90732C0.679552 9.5324 0.801124 9.04611 1.17604 8.82116L1.39065 8.69879L1.65725 8.55975C1.90002 8.43829 2.193 8.30454 2.52631 8.17122C3.53973 7.76585 4.56059 7.52084 5.54168 7.52084Z" fill="#20A090"/>
<path d="M5.54168 2.77084C6.59224 2.77084 7.39664 2.96403 8.62603 3.48547L9.07867 3.68336L9.57315 3.90982L10.3004 4.24973L10.7191 4.43831C10.7856 4.46757 10.8505 4.49576 10.9139 4.52292L11.278 4.67359C12.149 5.02023 12.744 5.14584 13.4584 5.14584C14.209 5.14584 15.0436 4.94554 15.8857 4.60872C16.186 4.48859 16.4651 4.35979 16.7144 4.23154L16.9271 4.11829L17.0094 4.07116C17.3843 3.84621 17.8706 3.96778 18.0955 4.3427C18.3205 4.71762 18.1989 5.20391 17.824 5.42886L17.6094 5.55123L17.3428 5.69027C17.1 5.81173 16.807 5.94548 16.4737 6.0788C15.4603 6.48417 14.4394 6.72918 13.4584 6.72918C12.4078 6.72918 11.6034 6.53599 10.374 6.01455L9.92137 5.81666L9.42688 5.5902L8.69967 5.25029L8.28093 5.06171C8.21445 5.03245 8.14955 5.00426 8.08611 4.9771L7.72205 4.82643C6.85106 4.47979 6.256 4.35418 5.54168 4.35418C4.79101 4.35418 3.9564 4.55448 3.11435 4.8913C2.81404 5.01143 2.53497 5.14023 2.28559 5.26848L2.07291 5.38173L1.99066 5.42886C1.61574 5.65381 1.12945 5.53224 0.904503 5.15732C0.679552 4.7824 0.801124 4.29611 1.17604 4.07116L1.39065 3.94879L1.65725 3.80975C1.90002 3.68829 2.193 3.55454 2.52631 3.42122C3.53973 3.01585 4.56059 2.77084 5.54168 2.77084Z" fill="#20A090"/>
</svg>
