<svg width="19" height="19" viewBox="0 0 19 19" fill="none" xmlns="http://www.w3.org/2000/svg">
<path fill-rule="evenodd" clip-rule="evenodd" d="M9.50002 0.791656C4.69054 0.791656 0.791687 4.69051 0.791687 9.49999C0.791687 14.3095 4.69054 18.2083 9.50002 18.2083C14.3095 18.2083 18.2084 14.3095 18.2084 9.49999C18.2084 4.69051 14.3095 0.791656 9.50002 0.791656ZM12.0368 12.128C13.1158 11.1146 14.6289 10.3287 16.5835 10.2735C16.2266 13.5792 13.6088 16.2072 10.3079 16.5797C10.413 14.5229 11.0248 13.0783 12.0368 12.128ZM8.7228 16.5831C8.8299 14.2145 9.53647 12.304 10.9529 10.9738C12.2954 9.71296 14.1854 8.74643 16.5795 8.6897C16.2054 5.38513 13.5708 2.76572 10.2592 2.41496C10.1049 4.78561 9.427 6.70468 8.12933 8.06831C6.8099 9.45472 4.85995 10.1487 2.41658 10.274C2.77478 13.5897 5.4076 16.2234 8.7228 16.5831ZM8.67169 2.42262C8.51995 4.49975 7.92633 5.98485 6.98235 6.97681C6.05199 7.95439 4.57553 8.56472 2.42075 8.68831C2.7928 5.40742 5.3931 2.80221 8.67169 2.42262Z" fill="#20A090"/>
</svg>
