<svg width="15" height="19" viewBox="0 0 15 19" fill="none" xmlns="http://www.w3.org/2000/svg">
<path fill-rule="evenodd" clip-rule="evenodd" d="M7.5 2.37499C6.40693 2.37499 5.52083 3.26109 5.52083 4.35416V4.74999H9.47917V4.35416C9.47917 3.26109 8.59307 2.37499 7.5 2.37499ZM11.0625 4.74999V4.35416C11.0625 2.38664 9.46752 0.791656 7.5 0.791656C5.53248 0.791656 3.9375 2.38664 3.9375 4.35416V4.74999H1.95833C1.08388 4.74999 0.375 5.45887 0.375 6.33332V16.625C0.375 17.4994 1.08388 18.2083 1.95833 18.2083H13.0417C13.9161 18.2083 14.625 17.4994 14.625 16.625V6.33332C14.625 5.45887 13.9161 4.74999 13.0417 4.74999H11.0625ZM9.47917 6.33332V7.12499C9.47917 7.56222 9.83361 7.91666 10.2708 7.91666C10.7081 7.91666 11.0625 7.56222 11.0625 7.12499V6.33332H13.0417V16.625H1.95833V6.33332H3.9375V7.12499C3.9375 7.56222 4.29194 7.91666 4.72917 7.91666C5.16639 7.91666 5.52083 7.56222 5.52083 7.12499V6.33332H9.47917Z" fill="white"/>
</svg>
