<svg width="19" height="19" viewBox="0 0 19 19" fill="none" xmlns="http://www.w3.org/2000/svg">
<path fill-rule="evenodd" clip-rule="evenodd" d="M5.93754 4.35416C5.93754 2.38664 7.53252 0.791656 9.50004 0.791656C11.4676 0.791656 13.0625 2.38664 13.0625 4.35416V9.49999C13.0625 11.4675 11.4676 13.0625 9.50004 13.0625C7.53252 13.0625 5.93754 11.4675 5.93754 9.49999V4.35416ZM9.50004 2.37499C8.40697 2.37499 7.52087 3.26109 7.52087 4.35416V9.49999C7.52087 10.5931 8.40697 11.4792 9.50004 11.4792C10.5931 11.4792 11.4792 10.5931 11.4792 9.49999V4.35416C11.4792 3.26109 10.5931 2.37499 9.50004 2.37499ZM3.56254 8.31249C3.99977 8.31249 4.35421 8.66693 4.35421 9.10416C4.35421 11.9461 6.65806 14.25 9.50004 14.25C12.342 14.25 14.6459 11.9461 14.6459 9.10416C14.6459 8.66693 15.0003 8.31249 15.4375 8.31249C15.8748 8.31249 16.2292 8.66693 16.2292 9.10416C16.2292 12.5528 13.6351 15.3954 10.2917 15.7872V17.4167C10.2917 17.8539 9.93727 18.2083 9.50004 18.2083C9.06282 18.2083 8.70837 17.8539 8.70837 17.4167V15.7872C5.36502 15.3954 2.77087 12.5528 2.77087 9.10416C2.77087 8.66693 3.12532 8.31249 3.56254 8.31249Z" fill="#20A090"/>
</svg>
