<svg width="20" height="19" viewBox="0 0 20 19" fill="none" xmlns="http://www.w3.org/2000/svg">
<path fill-rule="evenodd" clip-rule="evenodd" d="M0.833252 9.49998C0.833252 4.43737 4.93731 0.333313 9.99992 0.333313C10.2209 0.333313 10.4329 0.42111 10.5892 0.577391L18.9225 8.91072C19.0788 9.067 19.1666 9.27896 19.1666 9.49998C19.1666 14.5626 15.0625 18.6666 9.99992 18.6666C4.93731 18.6666 0.833252 14.5626 0.833252 9.49998ZM8.9055 2.07926C5.28211 2.60901 2.49992 5.72958 2.49992 9.49998C2.49992 13.6421 5.85778 17 9.99992 17C13.7973 17 16.9355 14.1778 17.4316 10.5165C16.9771 10.5743 16.4081 10.6161 15.7769 10.5932C14.2213 10.5366 12.1995 10.0806 10.6393 8.40036C9.09695 6.73941 8.74714 4.83868 8.77613 3.38957C8.78598 2.89697 8.83934 2.45219 8.9055 2.07926ZM10.4812 2.82645L16.5759 8.92114C16.3453 8.93327 16.0973 8.93706 15.8375 8.92761C14.5285 8.88001 13.0087 8.50267 11.8606 7.26627C10.6946 6.01055 10.4194 4.57794 10.4425 3.42289C10.4467 3.21254 10.4608 3.01265 10.4812 2.82645Z" fill="#20A090"/>
</svg>
